<?xml version="1.0" encoding="UTF-8"?>
<svg version="1.1" xmlns="http://www.w3.org/2000/svg" width="512" height="512">
<path d="M0 0 C1.45391144 0.00323273 1.45391144 0.00323273 2.93719482 0.00653076 C17.61751163 0.05885137 31.98839434 0.49415854 46.4375 3.3125 C47.96020508 3.60253906 47.96020508 3.60253906 49.51367188 3.8984375 C90.56806136 11.96491548 127.68371046 29.42081278 160.4375 55.3125 C161.47519531 56.12460937 162.51289063 56.93671875 163.58203125 57.7734375 C179.14358759 70.43842687 193.73964417 84.98875597 205.4375 101.3125 C206.42680622 102.65775592 207.41640366 104.00279771 208.40625 105.34765625 C231.20629792 136.65443091 246.42578684 172.21262175 253.4375 210.3125 C253.59831055 211.11316895 253.75912109 211.91383789 253.92480469 212.73876953 C259.83324415 242.94490491 258.5315186 277.23778016 252.4375 307.3125 C252.26669922 308.20211426 252.09589844 309.09172852 251.91992188 310.00830078 C248.52220262 327.45991957 248.52220262 327.45991957 241.4375 333.3125 C237.79065376 334.52811541 234.4477967 334.45419072 230.65124798 334.44672108 C229.84591815 334.44907331 229.04058832 334.45142554 228.21085456 334.45384905 C225.4893265 334.46055106 222.76784606 334.46008046 220.04631042 334.45967102 C218.0845917 334.46296888 216.12287365 334.46669429 214.16115648 334.4708125 C208.75236805 334.4808492 203.34359073 334.48455197 197.93479431 334.48720181 C192.10849717 334.49109984 186.28220887 334.50067843 180.45591736 334.50941467 C166.37767153 334.52919189 152.29942497 334.53924628 138.22116873 334.54814246 C131.59673339 334.55252277 124.97229885 334.55789019 118.34786415 334.56313133 C96.33654415 334.58014385 74.32522462 334.59466439 52.31389904 334.60188007 C50.89019377 334.60235483 49.46648849 334.60283072 48.04278322 334.60330774 C47.33674516 334.60354411 46.6307071 334.60378049 45.90327395 334.60402403 C42.32605958 334.60522524 38.74884522 334.60644069 35.17163086 334.60766602 C34.46171895 334.60790617 33.75180704 334.60814632 33.02038265 334.60839374 C9.99548453 334.61628934 -13.02936211 334.63972676 -36.05423775 334.67222196 C-60.38959148 334.70650404 -84.72491509 334.72622965 -109.06029338 334.72952431 C-122.32907924 334.73159907 -135.5977926 334.74048934 -148.86655617 334.76598549 C-160.16334664 334.78764197 -171.46004307 334.79576781 -182.75685195 334.78601871 C-188.52362343 334.78145951 -194.29020069 334.78345411 -200.0569458 334.80278015 C-205.33280719 334.82030894 -210.60833118 334.81949816 -215.88419565 334.80388286 C-217.79604802 334.8014911 -219.70792313 334.80591084 -221.61974058 334.81771151 C-224.21314916 334.83273182 -226.8053469 334.82322692 -229.39872456 334.80748463 C-230.14577336 334.81770683 -230.89282217 334.82792904 -231.66250882 334.83846101 C-236.76236512 334.77062111 -239.62574111 333.50514174 -243.5625 330.3125 C-247.79122504 325.35288421 -248.87218747 320.10506147 -250.125 313.875 C-250.33406982 312.84842285 -250.54313965 311.8218457 -250.75854492 310.76416016 C-251.38206359 307.61742591 -251.97525257 304.46618013 -252.5625 301.3125 C-252.73201172 300.4560791 -252.90152344 299.5996582 -253.07617188 298.71728516 C-255.81045574 284.49844181 -255.87396641 270.17730824 -255.9375 255.75 C-255.94544586 254.80630554 -255.95339172 253.86261108 -255.96157837 252.89031982 C-256.0526003 238.80073622 -254.8614829 225.21133716 -252.5625 211.3125 C-252.37445801 210.17433838 -252.18641602 209.03617676 -251.99267578 207.86352539 C-251.52585344 205.26913175 -251.00718565 202.69859343 -250.4375 200.125 C-250.23286133 199.19905029 -250.02822266 198.27310059 -249.81738281 197.3190918 C-239.48155661 152.86840415 -217.17342102 112.13309436 -185.5625 79.3125 C-184.93037598 78.65314453 -184.29825195 77.99378906 -183.64697266 77.31445312 C-174.50252521 67.82619695 -165.20515991 59.0862956 -154.5625 51.3125 C-153.41144983 50.45443848 -152.26040823 49.59636549 -151.109375 48.73828125 C-142.91974019 42.70072604 -134.41711724 37.31792698 -125.5625 32.3125 C-124.85528809 31.9103125 -124.14807617 31.508125 -123.41943359 31.09375 C-97.2720517 16.37254972 -68.25076215 6.67290884 -38.5625 2.3125 C-36.75446899 2.04651001 -36.75446899 2.04651001 -34.90991211 1.77514648 C-23.27388437 0.17985193 -11.73175445 -0.0470266 0 0 Z M-46.5625 35.3125 C-47.84423096 35.59335449 -47.84423096 35.59335449 -49.15185547 35.87988281 C-54.69478503 37.13329278 -60.13568699 38.62871379 -65.5625 40.3125 C-66.75552734 40.68133301 -66.75552734 40.68133301 -67.97265625 41.05761719 C-109.93447147 54.30784172 -148.42499597 80.57264555 -175.5625 115.3125 C-176.35140625 116.28445312 -177.1403125 117.25640625 -177.953125 118.2578125 C-185.0087406 127.1106132 -190.88328246 136.53040054 -196.5625 146.3125 C-196.93117188 146.93850098 -197.29984375 147.56450195 -197.6796875 148.20947266 C-224.29724523 193.77703037 -231.96613483 252.09796144 -220.5625 303.3125 C-218.9054011 304.9695989 -216.91291773 304.43564787 -214.69897571 304.44350848 C-213.99569073 304.44088146 -213.29240575 304.43825445 -212.5678091 304.43554783 C-211.82377084 304.43670167 -211.07973257 304.43785552 -210.31314769 304.43904433 C-207.78812467 304.44171804 -205.26316379 304.43718268 -202.73814392 304.43275452 C-200.92236855 304.43319007 -199.10659324 304.43406467 -197.29081827 304.43534368 C-192.2763772 304.43759187 -187.26195727 304.43356296 -182.2475189 304.42856562 C-176.8493947 304.42426592 -171.45127179 304.4257072 -166.05314636 304.4264679 C-156.69228264 304.42699344 -147.33142586 304.4238435 -137.97056389 304.41823006 C-124.43615995 304.41011912 -110.90175938 304.40750026 -97.36735327 304.40624207 C-75.41116004 304.4040509 -53.45497051 304.39738908 -31.4987793 304.38793945 C-10.1644694 304.37876699 11.16983895 304.37168535 32.50415039 304.36743164 C33.81816572 304.36716892 35.13218105 304.36690619 36.48601503 304.36663551 C43.07773574 304.36533052 49.66945646 304.3640668 56.26117718 304.36282361 C110.98662068 304.352449 165.71206016 304.33482894 220.4375 304.3125 C221.61389949 300.84422927 222.69438028 297.53627873 223.25390625 293.9140625 C223.37789795 293.11291016 223.50188965 292.31175781 223.62963867 291.48632812 C223.75185791 290.64521484 223.87407715 289.80410156 224 288.9375 C224.12930908 288.05771484 224.25861816 287.17792969 224.3918457 286.27148438 C232.48342006 228.99369891 217.02053095 169.39253878 182.5 123.0625 C170.1705147 106.87644558 156.64236626 91.71462431 140.4375 79.3125 C139.87836914 78.88227539 139.31923828 78.45205078 138.74316406 78.00878906 C129.68979206 71.07983678 120.36252604 64.91590038 110.4375 59.3125 C109.78587891 58.93883301 109.13425781 58.56516602 108.46289062 58.18017578 C79.76396529 41.82959757 45.435717 31.39211242 12.28515625 31.07421875 C11.43570435 31.06447021 10.58625244 31.05472168 9.71105957 31.04467773 C-9.40223292 30.87053266 -27.81598259 31.13600893 -46.5625 35.3125 Z " fill="#000000" transform="translate(255.5625,-0.31250000000000006)"/>
<path d="M0 0 C5.95016935 4.36345753 8.06459265 9.50917728 10.0078125 16.36328125 C10.26522217 17.22631866 10.52263184 18.08935608 10.7878418 18.97854614 C11.62001586 21.781245 12.43122979 24.58953419 13.2421875 27.3984375 C13.81219994 29.33232661 14.38349845 31.2658371 14.95605469 33.19897461 C16.3843709 38.03526299 17.79525096 42.87640287 19.19824219 47.72009277 C19.94783038 50.3078086 20.69991076 52.89478293 21.453125 55.48144531 C24.9298279 67.42523159 24.9298279 67.42523159 26.36425781 72.44311523 C26.70038086 73.61559814 27.03650391 74.78808105 27.3828125 75.99609375 C27.67188477 77.0106665 27.96095703 78.02523926 28.25878906 79.07055664 C28.91513466 81.44449183 28.91513466 81.44449183 29.9921875 83.4609375 C30.24639465 82.54718353 30.50060181 81.63342957 30.76251221 80.69198608 C33.16349673 72.06703117 35.57579801 63.44531158 37.9991188 54.82660484 C39.24451133 50.39589332 40.48593679 45.96415061 41.71826172 41.52978516 C42.90841402 37.24774216 44.10903086 32.96875964 45.31685638 28.69166946 C45.77506552 27.062109 46.22954039 25.43149358 46.68015289 23.79981613 C47.31359678 21.50863042 47.9604042 19.22160888 48.61035156 16.93505859 C48.79233597 16.2646756 48.97432037 15.5942926 49.16181946 14.90359497 C51.08968175 8.22792622 54.24450194 3.38618618 59.9921875 -0.5390625 C64.06456923 -2.68242131 67.42037773 -2.93318403 71.9921875 -2.5390625 C78.17800097 -0.51267533 82.11214669 2.34016544 85.48530579 7.93943787 C87.51597775 12.6850065 88.39816938 17.43454591 89.35229492 22.49243164 C89.56731155 23.59408661 89.78232819 24.69574158 90.00386047 25.83078003 C90.71095519 29.46751334 91.40483994 33.10661534 92.09765625 36.74609375 C92.58618068 39.28478699 93.07514501 41.82339562 93.56452942 44.36192322 C94.58833802 49.68440754 95.60549909 55.00810312 96.61791992 60.33276367 C97.78282773 66.45856207 98.96292308 72.58129179 100.15073127 78.70268732 C101.29828967 84.61982299 102.43225927 90.53947528 103.56099892 96.46023369 C104.04010524 98.96497873 104.52290653 101.46902009 105.00957298 103.97230721 C105.69140292 107.4873336 106.35766701 111.00498592 107.02026367 114.52368164 C107.22126678 115.54285172 107.4222699 116.56202179 107.62936401 117.61207581 C110.91027984 135.34059099 110.91027984 135.34059099 107.3046875 143.0859375 C104.18329617 146.29169076 101.57728949 148.22413222 97.08984375 148.89453125 C90.94146949 148.90244422 86.67904454 148.9074429 81.9921875 144.4609375 C79.5844603 140.94893249 78.45344508 137.95931532 77.67358398 133.7878418 C77.46003769 132.67285812 77.24649139 131.55787445 77.026474 130.40910339 C76.80762039 129.21320084 76.58876678 128.01729828 76.36328125 126.78515625 C76.01052879 124.9264666 76.01052879 124.9264666 75.65065002 123.03022766 C75.02797321 119.74167412 74.4135874 116.45180178 73.80358887 113.16088867 C72.94475241 108.53836899 72.07089431 103.91866652 71.19801331 99.29878235 C70.73491623 96.84303271 70.27507757 94.38666572 69.81895447 91.92961121 C68.71864948 86.04909026 67.52573839 80.24424759 65.9921875 74.4609375 C65.77778519 75.23244141 65.56338287 76.00394531 65.34248352 76.79882812 C63.31124924 84.09917324 61.26769898 91.39590675 59.21052265 98.6889801 C58.15354949 102.43778377 57.10124612 106.18776437 56.05981445 109.94091797 C55.05299908 113.56863747 54.03365819 117.19262776 53.00584984 120.81445312 C52.61754315 122.19096463 52.2336264 123.56872296 51.8543644 124.94775391 C47.13564091 142.07852656 47.13564091 142.07852656 39.9296875 147.9609375 C34.42930905 150.65696545 27.63774411 150.51953833 21.83984375 148.8359375 C15.91879552 145.93371692 13.05412951 140.34426365 10.86535645 134.40142822 C9.71496754 130.75296819 8.64426401 127.08644369 7.6015625 123.40625 C7.20866556 122.05451239 6.8146228 120.70310735 6.41949463 119.35202026 C5.38996389 115.82134871 4.37478339 112.28671834 3.36303711 108.75091553 C2.12668856 104.43961791 0.87434641 100.13294481 -0.37670517 95.82589531 C-1.34857061 92.47949026 -2.31768929 89.13237709 -3.27838135 85.78274536 C-3.62254089 84.58745209 -3.96670044 83.39215881 -4.32128906 82.16064453 C-4.62375549 81.10555695 -4.92622192 80.05046936 -5.237854 78.96340942 C-5.92225516 76.49504316 -5.92225516 76.49504316 -7.0078125 74.4609375 C-7.204533 75.58394005 -7.204533 75.58394005 -7.40522766 76.72962952 C-8.64664212 83.80744617 -9.89628431 90.88373829 -11.15504169 97.95848942 C-11.80179296 101.59516726 -12.44542163 105.23233883 -13.08178711 108.87084961 C-13.69678277 112.3864848 -14.32014622 115.9005446 -14.9491787 119.41369438 C-15.30212953 121.39726505 -15.64654499 123.38234839 -15.99079895 125.3674469 C-17.61019642 134.35309948 -18.86486638 141.2337537 -26.0078125 147.4609375 C-28.68437051 148.79921651 -30.83215302 148.66672306 -33.8203125 148.7109375 C-35.37685547 148.74960937 -35.37685547 148.74960937 -36.96484375 148.7890625 C-40.43437876 148.41494063 -42.21860815 147.52147428 -45.0078125 145.4609375 C-50.26845603 138.77849842 -49.60900941 131.74339994 -48.67714691 123.5555191 C-48.21831525 120.5816049 -47.69501706 117.62706786 -47.14355469 114.66894531 C-46.94515488 113.55838272 -46.74675507 112.44782013 -46.54234314 111.30360413 C-45.89045268 107.67173716 -45.22322375 104.04289933 -44.5546875 100.4140625 C-44.09287518 97.87215339 -43.6316419 95.33013903 -43.17095947 92.7880249 C-42.20608374 87.4779819 -41.23362407 82.16940908 -40.25537109 76.86181641 C-39.12818682 70.74530102 -38.01769691 64.625924 -36.91555095 58.50485158 C-35.84917954 52.58572444 -34.7689777 46.66921624 -33.68314362 40.75362396 C-33.22495023 38.24894309 -32.77047669 35.74357869 -32.31984711 33.23752594 C-31.68827907 29.73450613 -31.04100425 26.23473842 -30.38964844 22.73535156 C-30.20766403 21.70763138 -30.02567963 20.67991119 -29.83818054 19.62104797 C-28.50765391 12.60106105 -26.83125114 6.28437614 -21.6328125 1.0859375 C-14.28853618 -3.46051927 -7.66214021 -3.71979421 0 0 Z " fill="#000000" transform="translate(262.0078125,362.5390625)"/>
<path d="M0 0 C0.84510635 -0.00960754 1.69021271 -0.01921509 2.56092834 -0.02911377 C3.46822189 -0.03336365 4.37551544 -0.03761353 5.31030273 -0.04199219 C6.25518051 -0.04769226 7.20005829 -0.05339233 8.17356873 -0.05926514 C10.17494593 -0.06870632 12.17633862 -0.07524562 14.17773438 -0.07910156 C17.20853672 -0.08875457 20.23864533 -0.11976457 23.26928711 -0.15136719 C39.78099791 -0.24249453 53.21438934 1.58553862 65.82983398 13.14550781 C69.1496396 16.75947342 71.46521466 20.80495041 73.68139648 25.16113281 C74.17639648 26.11439453 74.17639648 26.11439453 74.68139648 27.08691406 C79.27094009 37.39132207 78.41156353 49.62462606 74.65405273 59.99707031 C73.7058229 62.40645145 72.72071999 64.78986074 71.68139648 67.16113281 C72.27307617 67.76699219 72.86475586 68.37285156 73.47436523 68.99707031 C83.73478215 79.87679461 88.51532091 91.12206672 88.68139648 106.16113281 C87.43439591 121.81791778 80.93196309 133.24674601 69.07202148 143.37207031 C58.79859225 151.06035559 48.34831309 152.47321067 35.86108398 152.49707031 C34.03494064 152.50705551 34.03494064 152.50705551 32.17190552 152.51724243 C29.60851547 152.52733201 27.04509934 152.5320606 24.48168945 152.53173828 C20.56214438 152.53612638 16.64371254 152.57252856 12.72436523 152.61035156 C10.22827532 152.61621746 7.73218008 152.62018837 5.23608398 152.62207031 C3.48278275 152.64362686 3.48278275 152.64362686 1.69406128 152.6656189 C-4.41736605 152.63127272 -8.66550958 152.58351045 -13.31860352 148.16113281 C-15.91459425 144.50156074 -16.6950724 142.01902492 -16.70628357 137.55104065 C-16.7161882 136.4337558 -16.72609283 135.31647095 -16.73629761 134.16532898 C-16.73179596 132.9490834 -16.72729431 131.73283783 -16.72265625 130.47973633 C-16.7295195 129.19141907 -16.73638275 127.90310181 -16.74345398 126.57574463 C-16.76137681 123.04881847 -16.76021872 119.52214123 -16.75451159 115.99518323 C-16.75141836 113.04788042 -16.7575137 110.10062533 -16.76355034 107.15332931 C-16.77759115 100.19877737 -16.7760381 93.24434828 -16.76464844 86.28979492 C-16.75316812 79.12160699 -16.76724216 71.95379323 -16.79404491 64.7856546 C-16.81621583 58.62497469 -16.82283617 52.46441211 -16.8169685 46.30369514 C-16.81360094 42.6269538 -16.81600027 38.95045228 -16.83321953 35.27374458 C-16.85158743 31.17289736 -16.83748742 27.07277618 -16.8203125 22.97192383 C-16.82998047 21.75770248 -16.83964844 20.54348114 -16.84960938 19.29246521 C-16.79400113 12.95870619 -16.64753727 8.942808 -12.31860352 4.16113281 C-8.52087692 0.71944308 -5.02238849 0.04636714 0 0 Z M14.68139648 31.16113281 C14.68139648 39.41113281 14.68139648 47.66113281 14.68139648 56.16113281 C18.16702148 56.24363281 21.65264648 56.32613281 25.24389648 56.41113281 C26.32872314 56.44754883 27.4135498 56.48396484 28.53125 56.52148438 C34.8162527 56.59317422 38.61765086 55.98103219 43.68139648 52.16113281 C45.7920577 48.59939201 46.68139648 46.23561476 46.68139648 42.09863281 C45.2062982 37.76553159 42.74629084 34.46058276 38.83862305 32.00146484 C36.24793154 30.99227967 34.25516477 30.93353086 31.47827148 30.96582031 C30.15327637 30.97331299 30.15327637 30.97331299 28.80151367 30.98095703 C27.689375 30.99916504 26.57723633 31.01737305 25.43139648 31.03613281 C20.11014648 31.09800781 20.11014648 31.09800781 14.68139648 31.16113281 Z M14.68139648 87.16113281 C14.68139648 98.38113281 14.68139648 109.60113281 14.68139648 121.16113281 C19.50764648 121.22300781 24.33389648 121.28488281 29.30639648 121.34863281 C30.8179834 121.37594482 32.32957031 121.40325684 33.88696289 121.43139648 C35.0901416 121.43888916 36.29332031 121.44638184 37.53295898 121.45410156 C39.37108154 121.47766724 39.37108154 121.47766724 41.24633789 121.50170898 C46.48343619 120.98246576 49.66162678 119.13454935 53.43139648 115.53613281 C56.28583599 111.79199788 57.4985925 107.8504523 57.68139648 103.16113281 C56.70460337 97.54205488 54.1057371 93.76234029 49.68139648 90.16113281 C45.18059427 87.49769611 41.96046972 86.79902122 36.75170898 86.86816406 C35.58913574 86.87565674 34.4265625 86.88314941 33.22875977 86.89086914 C31.76937988 86.91818115 30.31 86.94549316 28.80639648 86.97363281 C21.81452148 87.06644531 21.81452148 87.06644531 14.68139648 87.16113281 Z " fill="#000000" transform="translate(94.318603515625,359.8388671875)"/>
<path d="M0 0 C4.12487867 3.32651506 5.78963482 7.18726376 6.57421875 12.26953125 C6.66313351 14.00907215 6.70466402 15.75144687 6.70793152 17.49325562 C6.7121965 18.52495377 6.71646149 19.55665192 6.72085571 20.61961365 C6.72040253 21.74078079 6.71994934 22.86194794 6.71948242 24.01708984 C6.72284103 25.20626511 6.72619965 26.39544037 6.72966003 27.62065125 C6.73752289 30.8748636 6.74083705 34.12903763 6.74147582 37.38325834 C6.74218777 39.41875321 6.74432485 41.45424144 6.74697304 43.48973465 C6.75621782 50.59765292 6.760309 57.70555247 6.75952148 64.81347656 C6.75892088 71.42826925 6.76947153 78.04298035 6.78526515 84.65775239 C6.79836083 90.34624214 6.80370453 96.03470528 6.80306607 101.72320998 C6.80281169 105.11655208 6.80562997 108.50982163 6.81624413 111.90314865 C6.82604381 115.68989582 6.82316591 119.47643303 6.81713867 123.26318359 C6.82275818 124.38030228 6.82837769 125.49742096 6.83416748 126.64839172 C6.78130055 139.72289841 6.78130055 139.72289841 2.13671875 145.08203125 C-2.75858016 149.26094495 -5.50991072 149.64706822 -11.765625 149.5234375 C-16.99198177 149.02459287 -20.0721028 146.10230662 -23.42578125 142.26953125 C-24.4435427 139.21624689 -24.55876369 137.13473078 -24.57295227 133.93791199 C-24.58010757 132.83179062 -24.58726288 131.72566925 -24.59463501 130.58602905 C-24.59732391 129.37194366 -24.60001282 128.15785828 -24.6027832 126.90698242 C-24.6093544 125.62871078 -24.6159256 124.35043915 -24.62269592 123.03343201 C-24.64371728 118.79313407 -24.65409593 114.55283584 -24.6640625 110.3125 C-24.66811066 108.85183506 -24.6722276 107.39117031 -24.67641258 105.93050575 C-24.69545938 99.06836202 -24.70969194 92.20622902 -24.71802455 85.34406394 C-24.72779795 77.42644699 -24.75412203 69.50910953 -24.79452544 61.59159106 C-24.82469485 55.46919207 -24.83949416 49.34687317 -24.84280556 43.2244013 C-24.84515498 39.56883387 -24.85410084 35.91356522 -24.87926674 32.25807762 C-24.90689827 28.17862754 -24.90271387 24.0998014 -24.89575195 20.02026367 C-24.90856201 18.81225098 -24.92137207 17.60423828 -24.93457031 16.35961914 C-24.89515273 10.03254049 -24.74787204 6.04687048 -20.42578125 1.26953125 C-14.49799808 -4.10252225 -6.66832445 -4.24075465 0 0 Z " fill="#000000" transform="translate(428.42578125,362.73046875)"/>
<path d="M0 0 C4.51334264 2.13789915 6.94285326 4.452623 9 9 C10.42250525 13.92405663 10.20551914 18.36916782 8 23 C2.37921047 30.09623479 -4.28189467 36.44134417 -10.671875 42.83984375 C-12.00004242 44.17300377 -12.00004242 44.17300377 -13.3550415 45.53309631 C-15.20918555 47.39226245 -17.064649 49.25011361 -18.92138672 51.10668945 C-21.29228274 53.47748293 -23.65616456 55.85514398 -26.01844406 58.234519 C-28.29425004 60.52412602 -30.57725255 62.80653517 -32.859375 65.08984375 C-33.70216003 65.9398143 -34.54494507 66.78978485 -35.41326904 67.66551208 C-36.60040497 68.84803307 -36.60040497 68.84803307 -37.81152344 70.05444336 C-38.84669098 71.09174843 -38.84669098 71.09174843 -39.902771 72.15000916 C-45.21436157 76.83542687 -49.18636838 77.53888194 -56.1171875 77.3515625 C-60.0210649 76.87547989 -62.15730391 75.6969168 -65 73 C-67.5990635 69.33368821 -68.47428036 66.67493905 -68.5625 62.1875 C-68.60503906 61.21167969 -68.64757812 60.23585937 -68.69140625 59.23046875 C-66.8034868 50.40951179 -57.8972246 43.60181476 -51.74609375 37.48046875 C-50.75744485 36.4904693 -49.76909272 35.50017341 -48.78102112 34.50959778 C-46.72255815 32.448206 -44.66057193 30.3904249 -42.59594727 28.33520508 C-39.95755249 25.70824873 -37.32830107 23.07235199 -34.70159817 20.43371105 C-32.66770262 18.39257448 -30.62905054 16.35624229 -28.58894539 14.32131386 C-27.61749805 13.35119448 -26.64751699 12.37960439 -25.67907524 11.4064846 C-24.32532824 10.04763053 -22.96443479 8.69590752 -21.60327148 7.34448242 C-20.44794167 6.19153938 -20.44794167 6.19153938 -19.26927185 5.01530457 C-13.16152395 -0.40889009 -7.95849641 -0.97054834 0 0 Z " fill="#000000" transform="translate(309,194)"/>
<path d="M0 0 C4.7054671 2.99438815 6.806149 5.03319878 8.1875 10.5 C9.00145243 15.47904232 8.67753886 19.5416629 5.75 23.75 C0.40610287 28.8995736 -6.0369595 32.32073879 -12.4375 36 C-13.52998047 36.63679688 -14.62246094 37.27359375 -15.74804688 37.9296875 C-22.83617154 42.03494763 -27.94003287 44.70405613 -36.25 43.75 C-40.78162325 42.36312895 -43.39754825 40.06101452 -45.6875 35.9375 C-47.85994144 30.89031923 -47.9992748 26.8313189 -46.125 21.625 C-41.41415875 14.40171009 -33.35467319 10.69180379 -26.0625 6.5 C-24.4237793 5.54480469 -24.4237793 5.54480469 -22.75195312 4.5703125 C-15.12559141 0.15331927 -8.77836844 -3.37629555 0 0 Z " fill="#000000" transform="translate(411.25,156.25)"/>
<path d="M0 0 C0.69464355 0.38043457 1.38928711 0.76086914 2.10498047 1.15283203 C4.37209276 2.39659847 6.62492711 3.66319552 8.875 4.9375 C9.58841553 5.33179199 10.30183105 5.72608398 11.03686523 6.13232422 C16.79327838 9.47362447 21.8404561 13.5213683 24 20 C24.58060742 25.92219564 23.49056625 30.2391981 20 35 C16.73811199 38.01682388 13.2078821 39.25871816 8.8125 39.625 C2.48019787 39.27438596 -2.63390528 36.12566249 -8 33 C-8.73621582 32.57654297 -9.47243164 32.15308594 -10.23095703 31.71679688 C-12.66452723 30.3074966 -15.08439695 28.87736132 -17.5 27.4375 C-18.66680298 26.74950317 -18.66680298 26.74950317 -19.85717773 26.04760742 C-25.28925329 22.73475881 -28.87437663 19.71172903 -31.375 13.6875 C-32.24091311 8.57861267 -31.63523548 4.6839191 -28.921875 0.23046875 C-20.5038297 -10.71831802 -9.89815959 -5.58771339 0 0 Z " fill="#000000" transform="translate(124,161)"/>
<path d="M0 0 C4.57546292 3.75611443 6.68798152 7.5484262 7.4375 13.4375 C7.31310675 19.67977962 3.99186288 24.70016908 1 30 C0.61956543 30.69464355 0.23913086 31.38928711 -0.15283203 32.10498047 C-1.39659847 34.37209276 -2.66319552 36.62492711 -3.9375 38.875 C-4.33179199 39.58841553 -4.72608398 40.30183105 -5.13232422 41.03686523 C-8.47362447 46.79327838 -12.5213683 51.8404561 -19 54 C-24.92219564 54.58060742 -29.2391981 53.49056625 -34 50 C-37.07213278 46.67831022 -38.25404383 43.16406907 -38.5625 38.6875 C-38.00011854 29.67232429 -31.51682888 21.2027256 -27 13.625 C-26.49210937 12.74972656 -25.98421875 11.87445313 -25.4609375 10.97265625 C-22.14571765 5.40478701 -19.19114102 1.6326768 -13.3125 -1.375 C-8.52787538 -2.27775936 -4.52616297 -1.8192681 0 0 Z " fill="#000000" transform="translate(350,94)"/>
<path d="M0 0 C5.18582082 5.29076155 8.57935067 11.80194094 12.25 18.1875 C12.88679688 19.27998047 13.52359375 20.37246094 14.1796875 21.49804688 C18.28494763 28.58617154 20.95405613 33.69003287 20 42 C18.61312895 46.53162325 16.31101452 49.14754825 12.1875 51.4375 C7.14031923 53.60994144 3.0813189 53.7492748 -2.125 51.875 C-9.34828991 47.16415875 -13.05819621 39.10467319 -17.25 31.8125 C-17.88679687 30.72001953 -18.52359375 29.62753906 -19.1796875 28.50195312 C-23.03640202 21.84296624 -25.82663843 16.92069912 -25 9 C-23.28753965 4.31326641 -21.23922126 1.63773767 -17 -1 C-11.08636289 -3.62684537 -5.59046081 -3.37234261 0 0 Z " fill="#000000" transform="translate(180,95)"/>
<path d="M0 0 C4.52488127 2.14336481 6.89879323 4.46581697 9 9 C10.46033843 14.82357569 10.22306005 20.73211874 10.24023438 26.70019531 C10.24990586 28.73024011 10.28095371 30.75925616 10.3125 32.7890625 C10.37880975 49.5322742 10.37880975 49.5322742 4.625 55.4375 C-1.2319567 58.92378375 -5.33940719 59.62109666 -12 58 C-16.47061574 55.68190295 -18.88004495 53.54710043 -21 49 C-21.44069829 45.98910368 -21.44433867 43.0117725 -21.43359375 39.97265625 C-21.4388356 39.10611923 -21.44407745 38.23958221 -21.44947815 37.3467865 C-21.45588593 35.51871815 -21.45457748 33.6906085 -21.44604492 31.86254883 C-21.43753794 29.07493195 -21.4663074 26.28936762 -21.49804688 23.50195312 C-21.49965922 21.72135478 -21.49908072 19.94075282 -21.49609375 18.16015625 C-21.50732773 17.33185806 -21.51856171 16.50355988 -21.53013611 15.65016174 C-21.4661027 10.29703092 -20.54157174 7.25282583 -17 3 C-11.77740143 -1.05630398 -6.34659858 -0.77397544 0 0 Z " fill="#000000" transform="translate(262,70)"/>
<path d="M0 0 C0.86653702 -0.00524185 1.73307404 -0.0104837 2.62586975 -0.0158844 C4.4539381 -0.02229218 6.28204775 -0.02098373 8.11010742 -0.01245117 C10.8977243 -0.00394419 13.68328863 -0.03271365 16.47070312 -0.06445312 C18.25130147 -0.06606547 20.03190343 -0.06548697 21.8125 -0.0625 C22.64079819 -0.07373398 23.46909637 -0.08496796 24.32249451 -0.09654236 C29.67562533 -0.03250895 32.71983042 0.89202201 36.97265625 4.43359375 C41.02896023 9.65619232 40.74663169 15.08699517 39.97265625 21.43359375 C37.79878971 26.02286757 35.52821266 28.28857007 30.97265625 30.43359375 C27.96198194 30.87544587 24.98434718 30.87793213 21.9453125 30.8671875 C20.64550697 30.87505028 20.64550697 30.87505028 19.31944275 30.8830719 C17.4913744 30.88947968 15.66326475 30.88817123 13.83520508 30.87963867 C11.0475882 30.87113169 8.26202387 30.89990115 5.47460938 30.93164062 C3.69401103 30.93325297 1.91340907 30.93267447 0.1328125 30.9296875 C-1.10963478 30.94653847 -1.10963478 30.94653847 -2.37718201 30.96372986 C-7.73291392 30.89966534 -10.76009201 29.95946939 -15.02734375 26.43359375 C-18.14252117 22.63519205 -19.36518846 18.69498185 -19.02734375 13.80859375 C-18.14375301 8.68376745 -16.0736092 5.04678715 -11.95092773 1.79663086 C-7.91646925 -0.0843196 -4.40087869 -0.01555948 0 0 Z " fill="#000000" transform="translate(402.02734375,240.56640625)"/>
<path d="M0 0 C0.86653702 -0.00524185 1.73307404 -0.0104837 2.62586975 -0.0158844 C4.4539381 -0.02229218 6.28204775 -0.02098373 8.11010742 -0.01245117 C10.8977243 -0.00394419 13.68328863 -0.03271365 16.47070312 -0.06445312 C18.25130147 -0.06606547 20.03190343 -0.06548697 21.8125 -0.0625 C22.64079819 -0.07373398 23.46909637 -0.08496796 24.32249451 -0.09654236 C29.68376809 -0.03241155 32.6960959 0.91505568 36.97265625 4.43359375 C40.82759154 8.56151802 41.10784522 12.94999136 40.97265625 18.43359375 C39.89374356 23.52952957 37.27301597 26.56668727 32.97265625 29.43359375 C27.85146976 31.99418699 19.86658602 30.83192048 14.17138672 30.89355469 C12.29938077 30.92009878 10.4275193 30.96095483 8.55615234 31.01660156 C-8.99854846 31.53227672 -8.99854846 31.53227672 -14.23828125 27.08984375 C-18.09365252 22.78818061 -18.37370207 18.58271238 -18.30859375 13.0078125 C-17.85835182 8.88684814 -16.52936926 6.74708699 -14.02734375 3.43359375 C-9.56519153 -0.13623276 -5.4665 -0.01932703 0 0 Z " fill="#000000" transform="translate(88.02734375,240.56640625)"/>
</svg>
